<?xml version="1.0" standalone="no"?><!DOCTYPE svg PUBLIC "-//W3C//DTD SVG 1.1//EN" 	"http://www.w3.org/Graphics/SVG/1.1/DTD/svg11.dtd"><svg width="1303" height="727" version="1.1"	xmlns="http://www.w3.org/2000/svg"><title>Krona (snapshot) - k__Eukaryota</title><defs>	<style type="text/css">	text {font-size: 11px; font-family: sans-serif; dominant-baseline:central}	path {stroke-width:0.27499999999999997;}	path.wedge {stroke:none}	path.line {fill:none;stroke:black;}	line {stroke:black;stroke-width:0.27499999999999997;}	line.tick {stroke-width:0.5499999999999999;}	line.pattern {stroke-width:0.18333333333333332;}	circle {fill:none;stroke:black;stroke-width:0.27499999999999997;}	rect {stroke:black;stroke-width:0.27499999999999997;}	.highlight {stroke:black;stroke-width:1.375;}	.searchHighlight {fill:rgb(255, 255, 100);stroke:none;}	</style><pattern id="hiddenPattern" patternUnits="userSpaceOnUse" x="0" y="0" width="6.6" height="6.6"><line class="pattern" x1="0" y1="0" x2="3.3" y2="3.3"/><line class="pattern" x1="3.3" y1="6.6" x2="6.6" y2="3.3"/></pattern></defs><path class="wedge" fill="rgb(220,220,220)" d=" M 619.9616841786617,305.2215991266553 L 750.346736714647,130.38639650662122 A 290.8,290.8 0 0,1 576.5000000000001,654.3 L 576.5,436.2 A 72.7,72.7 0 0 0 619.9616841786617,305.2215991266553 Z "/><path class="wedge" fill="rgb(207,112,112)" d=" M 576.5,436.2 L 576.5,654.3 A 290.8,290.8 0 1,1 735.1866566108611,119.8133466648888 L 616.1716641527153,302.5783366662222 A 72.7,72.7 0 1 0 576.5,436.2 Z "/><path class="wedge" fill="rgb(207,112,112)" d=" M 600.593550112009,249.83893025466557 L 636.8030063795163,79.02120040046566 A 290.8,290.8 0 0,1 735.1866566108611,119.8133466648888 L 639.9018955721526,266.1370831860943 A 116.1866512670611,116.1866512670611 0 0 0 600.593550112009,249.83893025466557 Z "/><path class="wedge" fill="rgb(211,123,123)" d=" M 576.5,479.6866512670611 L 576.5,654.3 A 290.8,290.8 0 0,1 288.3704069469997,324.18107825597895 L 461.38028697465893,347.7904613175054 A 116.1866512670611,116.1866512670611 0 0 0 576.5,479.6866512670611 Z "/><path class="wedge" fill="rgb(211,123,123)" d=" M 424.85696460082517,355.80120620587354 L 286.0740470938949,348.7553101565062 A 290.8,290.8 0 0,1 288.3704069469997,324.18107825597895 L 426.0559861586754,342.97001436261576 A 151.83834038529224,151.83834038529224 0 0 0 424.85696460082517,355.80120620587354 Z "/><path class="wedge" fill="rgb(214,134,134)" d=" M 576.5,515.3383403852922 L 576.5,654.3 A 290.8,290.8 0 0,1 286.0740470938949,348.7553101565062 L 424.85696460082517,355.80120620587354 A 151.83834038529224,151.83834038529224 0 0 0 576.5,515.3383403852922 Z "/><path class="wedge" fill="rgb(214,134,134)" d=" M 394.9132619447071,365.0082763155833 L 285.71003079843894,365.9153284983971 A 290.8,290.8 0 0,1 286.0740470938949,348.7553101565062 L 395.14057560298875,354.29252926203526 A 181.5930018888551,181.5930018888551 0 0 0 394.9132619447071,365.0082763155833 Z "/><path class="wedge" fill="rgb(218,145,145)" d=" M 576.5,545.093001888855 L 576.5,654.3 A 290.8,290.8 0 0,1 285.71003079843894,365.9153284983971 L 394.9132619447071,365.0082763155833 A 181.5930018888551,181.5930018888551 0 0 0 576.5,545.093001888855 Z "/><path class="wedge" fill="rgb(218,145,145)" d=" M 371.5267754586312,390.92140738209093 L 288.2678367476046,402.0598245178121 A 290.8,290.8 0 0,1 285.71003079843894,365.9153284983971 L 369.70781907556966,365.2176350656245 A 206.79931421960998,206.79931421960998 0 0 0 371.5267754586312,390.92140738209093 Z "/><path class="wedge" fill="rgb(222,156,156)" d=" M 576.5,570.29931421961 L 576.5,654.3 A 290.8,290.8 0 0,1 288.2678367476046,402.0598245178121 L 371.5267754586312,390.92140738209093 A 206.79931421960998,206.79931421960998 0 0 0 576.5,570.29931421961 Z "/><path class="wedge" fill="rgb(222,156,156)" d=" M 350.09260478716044,393.7891732749301 L 288.26788580380094,402.06019120789307 A 290.8,290.8 0 0,1 288.2678367476046,402.0598245178121 L 350.09256625333614,393.78888523851083 A 228.42447904010123,228.42447904010123 0 0 0 350.09260478716044,393.7891732749301 Z "/><path class="wedge" fill="rgb(225,167,167)" d=" M 576.5,591.9244790401012 L 576.5,654.3 A 290.8,290.8 0 0,1 288.26788580380094,402.06019120789307 L 350.09260478716044,393.7891732749301 A 228.42447904010123,228.42447904010123 0 0 0 576.5,591.9244790401012 Z "/><path class="wedge" fill="rgb(211,143,123)" d=" M 461.38028697465893,347.7904613175054 L 288.3704069469997,324.18107825597895 A 290.8,290.8 0 0,1 636.8030063795163,79.02120040046566 L 600.593550112009,249.83893025466557 A 116.1866512670611,116.1866512670611 0 0 0 461.38028697465893,347.7904613175054 Z "/><path class="wedge" fill="rgb(211,143,123)" d=" M 603.7313980837231,214.12352069564074 L 628.6534320162639,77.41494354139195 A 290.8,290.8 0 0,1 636.8030063795163,79.02120040046566 L 607.9866176372402,214.96221180882588 A 151.83834038529224,151.83834038529224 0 0 0 603.7313980837231,214.12352069564074 Z "/><path class="wedge" fill="rgb(214,153,134)" d=" M 426.0559861586754,342.97001436261576 L 288.3704069469997,324.18107825597895 A 290.8,290.8 0 0,1 628.6534320162639,77.41494354139195 L 603.7313980837231,214.12352069564074 A 151.83834038529224,151.83834038529224 0 0 0 426.0559861586754,342.97001436261576 Z "/><path class="wedge" fill="rgb(214,153,134)" d=" M 609.0641017862952,184.85062941656489 L 628.6476086685906,77.41388200377924 A 290.8,290.8 0 0,1 628.6534320162639,77.41494354139195 L 609.0677382346619,184.8512923044662 A 181.5930018888551,181.5930018888551 0 0 0 609.0641017862952,184.85062941656489 Z "/><path class="wedge" fill="rgb(218,162,145)" d=" M 396.5745607444686,338.9469015456336 L 288.3704069469997,324.18107825597895 A 290.8,290.8 0 0,1 628.6476086685906,77.41388200377924 L 609.0641017862952,184.85062941656489 A 181.5930018888551,181.5930018888551 0 0 0 396.5745607444686,338.9469015456336 Z "/><path class="wedge" fill="rgb(218,162,145)" d=" M 612.1911313940097,159.8039040592174 L 626.6886626101482,77.06372760174958 A 290.8,290.8 0 0,1 628.6476086685906,77.41388200377924 L 613.5842149616819,160.05291262252797 A 206.79931421960998,206.79931421960998 0 0 0 612.1911313940097,159.8039040592174 Z "/><path class="wedge" fill="rgb(222,171,156)" d=" M 371.59971716046846,335.53876873274396 L 288.3704069469997,324.18107825597895 A 290.8,290.8 0 0,1 626.6886626101482,77.06372760174958 L 612.1911313940097,159.8039040592174 A 206.79931421960998,206.79931421960998 0 0 0 371.59971716046846,335.53876873274396 Z "/><path class="wedge" fill="rgb(222,171,156)" d=" M 371.59971716046846,335.53876873274396 L 288.3704069469997,324.18107825597895 A 290.8,290.8 0 0,1 626.6886626101482,77.06372760174958 L 612.1911313940097,159.8039040592174 A 206.79931421960998,206.79931421960998 0 0 0 371.59971716046846,335.53876873274396 Z "/><path class="wedge" fill="rgb(188,207,112)" d=" M 616.1716641527153,302.5783366662222 L 735.1866566108611,119.8133466648888 A 290.8,290.8 0 0,1 744.0242472121499,125.80215273166127 L 618.3810618030375,304.0755381829153 A 72.7,72.7 0 0 0 616.1716641527153,302.5783366662222 Z "/><rect fill="rgb(188,207,112)" x="1270.095" y="606.095" width="22" height="22"/><path class="line" d="M 739.632936259919,122.76719146070428 L 776.3378469184008,68.60230953936275 A 356.23,356.23 0 0,1 932.73,363.5 L 932.73,617.095 L 1142.2934049479168,617.095"/><text x="1262.7616666666668" y="617.095" style="font-color:black;font-weight:normal" text-anchor="end">p__Streptophyta&#160;&#160;&#160;0.6%</text><path class="wedge" fill="rgb(112,207,150)" d=" M 618.3810618030375,304.0755381829153 L 744.0242472121499,125.80215273166127 A 290.8,290.8 0 0,1 748.2095578676436,128.8077169208618 L 619.4273894669109,304.82692923021546 A 72.7,72.7 0 0 0 618.3810618030375,304.0755381829153 Z "/><rect fill="rgb(112,207,150)" x="1270.095" y="635.4283333333334" width="22" height="22"/><path class="line" d="M 746.1235596291173,127.29566469104066 L 780.0482715549407,80.05479762924881 A 348.96,348.96 0 0,1 921.73,414.38544683895356 L 921.73,646.4283333333334 L 1144.7587369791668,646.4283333333334"/><text x="1262.7616666666668" y="646.4283333333334" style="font-color:black;font-weight:normal" text-anchor="end">p__Ascomycota&#160;&#160;&#160;0.3%</text><path class="wedge" fill="rgb(112,150,207)" d=" M 619.4273894669109,304.82692923021546 L 748.2095578676436,128.8077169208618 A 290.8,290.8 0 0,1 749.848105682298,130.01536612368076 L 619.8370264205745,305.12884153092017 A 72.7,72.7 0 0 0 619.4273894669109,304.82692923021546 Z "/><rect fill="rgb(112,150,207)" x="1270.095" y="664.7616666666668" width="22" height="22"/><path class="line" d="M 749.0298884187475,129.4101078597913 L 779.2226188920283,88.44437673525476 A 341.69,341.69 0 0,1 910.73,434.50959935107363 L 910.73,675.7616666666668 L 1127.0180143229168,675.7616666666668"/><text x="1262.7616666666668" y="675.7616666666668" style="font-color:black;font-weight:normal" text-anchor="end">p__Platyhelminthes&#160;&#160;&#160;0.1%</text><path class="wedge" fill="rgb(188,112,207)" d=" M 619.8370264205745,305.12884153092017 L 749.848105682298,130.01536612368076 A 290.8,290.8 0 0,1 750.346736714647,130.38639650662122 L 619.9616841786617,305.2215991266553 A 72.7,72.7 0 0 0 619.8370264205745,305.12884153092017 Z "/><rect fill="rgb(188,112,207)" x="1270.095" y="694.095" width="22" height="22"/><path class="line" d="M 750.0975203240132,130.2007480994552 L 776.1371483726151,95.20586031437352 A 334.42,334.42 0 0,1 899.73,449.2852172579868 L 899.73,705.095 L 1144.1249479166668,705.095"/><text x="1262.7616666666668" y="705.095" style="font-color:black;font-weight:normal" text-anchor="end">p__Arthropoda&#160;&#160;&#160;0.03%</text><circle cx="576.5" cy="363.5" r="72.7"/><circle cx="576.5" cy="363.5" r="290.8"/><text x="576.5" y="363.5" text-anchor="middle" style="font-color:black;font-weight:bold" transform="rotate(360,576.5,363.5)">k__Eukaryota</text><text x="758.25" y="363.5" text-anchor="start" style="font-color:black;font-weight:normal" transform="rotate(378.35704649228893,576.5,363.5)">40%&#160;&#160;&#160;[other k__Eukaryota]</text><path class="line" d=" M 616.1716641527153,302.5783366662222 A 72.7,72.7 0 1 0 576.5,436.2"/><line x1="735.1866566108611" y1="119.8133466648888" x2="616.1716641527153" y2="302.5783366662222"/><text x="576.5" y="277.7540046198817" text-anchor="middle" style="font-color:black;font-weight:normal" transform="rotate(286.53591476018863,576.5,363.5)">p__Chordata</text><path class="line" d=" M 461.38028697465893,347.7904613175054 A 116.1866512670611,116.1866512670611 0 0 0 576.5,479.6866512670611"/><line x1="288.3704069469997" y1="324.18107825597895" x2="461.38028697465893" y2="347.7904613175054"/><text x="576.5" y="490.38215800253045" text-anchor="middle" style="font-color:black;font-weight:normal" transform="rotate(48.885367129267145,576.5,363.5)">c__Mammalia</text><path class="line" d=" M 424.85696460082517,355.80120620587354 A 151.83834038529224,151.83834038529224 0 0 0 576.5,515.3383403852922"/><line x1="286.0740470938949" y1="348.7553101565062" x2="424.85696460082517" y2="355.80120620587354"/><text x="576.5" y="524.2647388363611" text-anchor="middle" style="font-color:black;font-weight:normal" transform="rotate(46.45318243086051,576.5,363.5)">o__Primates</text><path class="line" d=" M 394.9132619447071,365.0082763155833 A 181.5930018888551,181.5930018888551 0 0 0 576.5,545.093001888855"/><line x1="285.71003079843894" y1="365.9153284983971" x2="394.9132619447071" y2="365.0082763155833"/><text x="576.5" y="557.6961580542326" text-anchor="middle" style="font-color:black;font-weight:normal" transform="rotate(44.76205343828149,576.5,363.5)">f__Hominidae</text><path class="line" d=" M 371.5267754586312,390.92140738209093 A 206.79931421960998,206.79931421960998 0 0 0 576.5,570.29931421961"/><line x1="288.2678367476046" y1="402.0598245178121" x2="371.5267754586312" y2="390.92140738209093"/><text x="576.5" y="581.1118966298557" text-anchor="middle" style="font-color:black;font-weight:normal" transform="rotate(41.19009423102974,576.5,363.5)">g__Homo</text><path class="line" d=" M 350.09260478716044,393.7891732749301 A 228.42447904010123,228.42447904010123 0 0 0 576.5,591.9244790401012"/><line x1="288.26788580380094" y1="402.06019120789307" x2="350.09260478716044" y2="393.7891732749301"/><text x="316.88776047994935" y="363.5" text-anchor="end" style="font-color:black;font-weight:normal" transform="rotate(-48.809942214930324,576.5,363.5)">s__Homo_sapiens&#160;&#160;&#160;23%</text><path class="line" d=" M 600.593550112009,249.83893025466557 A 116.1866512670611,116.1866512670611 0 0 0 461.38028697465893,347.7904613175054"/><line x1="636.8030063795163" y1="79.02120040046566" x2="600.593550112009" y2="249.83893025466557"/><text x="576.5" y="222.3571663501771" text-anchor="middle" style="font-color:black;font-weight:normal" transform="rotate(324.86948397987453,576.5,363.5)">c__Actinopteri</text><path class="line" d=" M 603.7313980837231,214.12352069564074 A 151.83834038529224,151.83834038529224 0 0 0 426.0559861586754,342.97001436261576"/><line x1="628.6534320162639" y1="77.41494354139195" x2="603.7313980837231" y2="214.12352069564074"/><text x="576.5" y="190.83339656221375" text-anchor="middle" style="font-color:black;font-weight:normal" transform="rotate(324.05116283872724,576.5,363.5)">o__Cypriniformes</text><path class="line" d=" M 609.0641017862952,184.85062941656489 A 181.5930018888551,181.5930018888551 0 0 0 396.5745607444686,338.9469015456336"/><line x1="628.6476086685906" y1="77.41388200377924" x2="609.0641017862952" y2="184.85062941656489"/><text x="576.5" y="169.30384194576746" text-anchor="middle" style="font-color:black;font-weight:normal" transform="rotate(324.05057970336634,576.5,363.5)">f__Cyprinidae</text><line x1="626.6886626101482" y1="77.06372760174958" x2="612.1911313940097" y2="159.8039040592174"/><path class="line" d=" M 612.1911313940097,159.8039040592174 A 206.79931421960998,206.79931421960998 0 0 0 371.59971716046846,335.53876873274396"/><text x="327.700342890195" y="363.5" text-anchor="end" style="font-color:black;font-weight:normal" transform="rotate(53.85453688422273,576.5,363.5)">s__Cyprinus_carpio&#160;&#160;&#160;26%</text><path class="line" d=" M 618.3810618030375,304.0755381829153 A 72.7,72.7 0 0 0 616.1716641527153,302.5783366662222"/><line x1="744.0242472121499" y1="125.80215273166127" x2="618.3810618030375" y2="304.0755381829153"/><path class="line" d=" M 619.4273894669109,304.82692923021546 A 72.7,72.7 0 0 0 618.3810618030375,304.0755381829153"/><line x1="748.2095578676436" y1="128.8077169208618" x2="619.4273894669109" y2="304.82692923021546"/><path class="line" d=" M 619.8370264205745,305.12884153092017 A 72.7,72.7 0 0 0 619.4273894669109,304.82692923021546"/><line x1="749.848105682298" y1="130.01536612368076" x2="619.8370264205745" y2="305.12884153092017"/><path class="line" d=" M 619.9616841786617,305.2215991266553 A 72.7,72.7 0 0 0 619.8370264205745,305.12884153092017"/><line x1="750.346736714647" y1="130.38639650662122" x2="619.9616841786617" y2="305.2215991266553"/></svg>