<?xml version="1.0" standalone="no"?><!DOCTYPE svg PUBLIC "-//W3C//DTD SVG 1.1//EN" 	"http://www.w3.org/Graphics/SVG/1.1/DTD/svg11.dtd"><svg width="1303" height="727" version="1.1"	xmlns="http://www.w3.org/2000/svg"><title>Krona (snapshot) - all</title><defs>	<style type="text/css">	text {font-size: 11px; font-family: sans-serif; dominant-baseline:central}	path {stroke-width:0.27499999999999997;}	path.wedge {stroke:none}	path.line {fill:none;stroke:black;}	line {stroke:black;stroke-width:0.27499999999999997;}	line.tick {stroke-width:0.5499999999999999;}	line.pattern {stroke-width:0.18333333333333332;}	circle {fill:none;stroke:black;stroke-width:0.27499999999999997;}	rect {stroke:black;stroke-width:0.27499999999999997;}	.highlight {stroke:black;stroke-width:1.375;}	.searchHighlight {fill:rgb(255, 255, 100);stroke:none;}	</style><pattern id="hiddenPattern" patternUnits="userSpaceOnUse" x="0" y="0" width="6.6" height="6.6"><line class="pattern" x1="0" y1="0" x2="3.3" y2="3.3"/><line class="pattern" x1="3.3" y1="6.6" x2="6.6" y2="3.3"/></pattern></defs><path class="wedge" fill="rgb(207,111,111)" d=" M 576.5,436.2 L 576.5,654.3 A 290.8,290.8 0 1,1 861.7560337291928,420.0122572641511 L 647.8140084322982,377.6280643160378 A 72.7,72.7 0 1 0 576.5,436.2 Z "/><path class="wedge" fill="rgb(207,111,111)" d=" M 506.8189746960482,270.68624618820115 L 401.90663100390896,130.94506992412562 A 290.8,290.8 0 0,1 861.7560337291928,420.0122572641511 L 690.347009303279,386.0543046167745 A 116.05963201754162,116.05963201754162 0 0 0 506.8189746960482,270.68624618820115 Z "/><path class="wedge" fill="rgb(210,121,121)" d=" M 576.5,479.5596320175416 L 576.5,654.3 A 290.8,290.8 0 0,1 286.7330303090512,387.9896565130003 L 460.85265518167245,373.2739357741912 A 116.05963201754162,116.05963201754162 0 0 0 576.5,479.5596320175416 Z "/><path class="wedge" fill="rgb(210,121,121)" d=" M 472.72358368282426,471.6924389503792 L 375.2009213367701,573.3650064430342 A 290.8,290.8 0 0,1 286.7330303090512,387.9896565130003 L 427.1154231737811,376.1252380618669 A 149.91713854548885,149.91713854548885 0 0 0 472.72358368282426,471.6924389503792 Z "/><path class="wedge" fill="rgb(213,130,130)" d=" M 576.5,513.4171385454888 L 576.5,654.3 A 290.8,290.8 0 0,1 475.59926031926966,636.2337176292683 L 524.4822896490429,504.1033649651075 A 149.91713854548885,149.91713854548885 0 0 0 576.5,513.4171385454888 Z "/><path class="wedge" fill="rgb(213,130,130)" d=" M 534.7869733246271,535.5950279857616 L 507.9983391518457,646.1166351456411 A 290.8,290.8 0 0,1 475.59926031926966,636.2337176292683 L 515.0580554725985,529.5769782496424 A 177.07816141986694,177.07816141986694 0 0 0 534.7869733246271,535.5950279857616 Z "/><path class="wedge" fill="rgb(216,140,140)" d=" M 576.5,540.578161419867 L 576.5,654.3 A 290.8,290.8 0 0,1 515.9245266198544,647.9209064481219 L 539.6135025677638,536.693711083925 A 177.07816141986694,177.07816141986694 0 0 0 576.5,540.578161419867 Z "/><path class="wedge" fill="rgb(216,140,140)" d=" M 550.0590434029775,561.0842709387723 L 537.9286436632816,651.7306202858153 A 290.8,290.8 0 0,1 515.9245266198544,647.9209064481219 L 534.9750546880875,558.4726832790033 A 199.3456001725943,199.3456001725943 0 0 0 550.0590434029775,561.0842709387723 Z "/><path class="wedge" fill="rgb(219,149,149)" d=" M 576.5,562.8456001725942 L 576.5,654.3 A 290.8,290.8 0 0,1 540.6445279740966,652.0810546896655 L 551.9208026462333,561.324496373974 A 199.3456001725943,199.3456001725943 0 0 0 576.5,562.8456001725942 Z "/><path class="wedge" fill="rgb(219,149,149)" d=" M 554.9887505162895,580.365599338679 L 547.7959414023654,652.8798835787028 A 290.8,290.8 0 0,1 540.6445279740966,652.0810546896655 L 549.6293746672824,579.7669450588868 A 217.929855758395,217.929855758395 0 0 0 554.9887505162895,580.365599338679 Z "/><path class="wedge" fill="rgb(223,159,159)" d=" M 576.5,581.429855758395 L 576.5,654.3 A 290.8,290.8 0 0,1 547.7959414023654,652.8798835787028 L 554.9887505162895,580.365599338679 A 217.929855758395,217.929855758395 0 0 0 576.5,581.429855758395 Z "/><path class="wedge" fill="rgb(223,159,159)" d=" M 564.6448720394077,596.8723683423445 L 561.7466184135498,653.9255115029748 A 290.8,290.8 0 0,1 547.7959414023654,652.8798835787028 L 553.4347599620263,596.032150608615 A 233.67328979726577,233.67328979726577 0 0 0 564.6448720394077,596.8723683423445 Z "/><path class="wedge" fill="rgb(226,168,168)" d=" M 576.5,597.1732897972657 L 576.5,654.3 A 290.8,290.8 0 0,1 561.7466184135498,653.9255115029748 L 564.6448720394077,596.8723683423445 A 233.67328979726577,233.67328979726577 0 0 0 576.5,597.1732897972657 Z "/><path class="wedge" fill="rgb(219,150,149)" d=" M 551.9208026462333,561.324496373974 L 540.6445279740966,652.0810546896655 A 290.8,290.8 0 0,1 537.9286436632816,651.7306202858153 L 550.0590434029775,561.0842709387723 A 199.3456001725943,199.3456001725943 0 0 0 551.9208026462333,561.324496373974 Z "/><path class="wedge" fill="url(#hiddenPattern)" d=" M 551.9208026462333,561.324496373974 L 540.6445279740966,652.0810546896655 A 290.8,290.8 0 0,1 537.9286436632816,651.7306202858153 L 550.0590434029775,561.0842709387723 A 199.3456001725943,199.3456001725943 0 0 0 551.9208026462333,561.324496373974 Z "/><path class="wedge" fill="rgb(213,132,130)" d=" M 539.6135025677638,536.693711083925 L 515.9245266198544,647.9209064481219 A 290.8,290.8 0 0,1 507.9983391518457,646.1166351456411 L 534.7869733246271,535.5950279857616 A 177.07816141986694,177.07816141986694 0 0 0 539.6135025677638,536.693711083925 Z "/><path class="wedge" fill="url(#hiddenPattern)" d=" M 539.6135025677638,536.693711083925 L 515.9245266198544,647.9209064481219 A 290.8,290.8 0 0,1 507.9983391518457,646.1166351456411 L 534.7869733246271,535.5950279857616 A 177.07816141986694,177.07816141986694 0 0 0 539.6135025677638,536.693711083925 Z "/><path class="wedge" fill="rgb(213,133,130)" d=" M 524.4822896490429,504.1033649651075 L 475.59926031926966,636.2337176292683 A 290.8,290.8 0 0,1 420.987691266503,609.2245649754568 L 496.328196925968,490.1792422677288 A 149.91713854548885,149.91713854548885 0 0 0 524.4822896490429,504.1033649651075 Z "/><path class="wedge" fill="rgb(213,133,130)" d=" M 492.599342650084,519.4402287676032 L 438.71727760372914,619.587019212361 A 290.8,290.8 0 0,1 420.987691266503,609.2245649754568 L 481.803185320886,513.1301725637913 A 177.07816141986694,177.07816141986694 0 0 0 492.599342650084,519.4402287676032 Z "/><path class="wedge" fill="rgb(216,142,140)" d=" M 515.0580554725985,529.5769782496424 L 475.59926031926966,636.2337176292683 A 290.8,290.8 0 0,1 442.1067508305639,621.3819392235173 L 494.6633099375316,520.533217541576 A 177.07816141986694,177.07816141986694 0 0 0 515.0580554725985,529.5769782496424 Z "/><path class="wedge" fill="rgb(216,142,140)" d=" M 484.4261780584193,540.3080304206851 L 442.18518493796853,621.4227994087616 A 290.8,290.8 0 0,1 442.1067508305639,621.3819392235173 L 484.3724108843664,540.2800204545548 A 199.3456001725943,199.3456001725943 0 0 0 484.4261780584193,540.3080304206851 Z "/><path class="wedge" fill="rgb(219,152,149)" d=" M 507.33177954087387,550.4610269192207 L 475.59926031926966,636.2337176292683 A 290.8,290.8 0 0,1 442.18518493796853,621.4227994087616 L 484.4261780584193,540.3080304206851 A 199.3456001725943,199.3456001725943 0 0 0 507.33177954087387,550.4610269192207 Z "/><path class="wedge" fill="rgb(219,152,149)" d=" M 476.37444462188733,557.067288535794 L 442.8950315452198,621.7912162737966 A 290.8,290.8 0 0,1 442.18518493796853,621.4227994087616 L 475.84247499077026,556.7911914441295 A 217.929855758395,217.929855758395 0 0 0 476.37444462188733,557.067288535794 Z "/><path class="wedge" fill="rgb(223,161,159)" d=" M 500.88348127738334,567.8907143858229 L 475.59926031926966,636.2337176292683 A 290.8,290.8 0 0,1 442.8950315452198,621.7912162737966 L 476.37444462188733,557.067288535794 A 217.929855758395,217.929855758395 0 0 0 500.88348127738334,567.8907143858229 Z "/><path class="wedge" fill="rgb(216,143,140)" d=" M 494.6633099375316,520.533217541576 L 442.1067508305639,621.3819392235173 A 290.8,290.8 0 0,1 438.71727760372914,619.587019212361 L 492.599342650084,519.4402287676032 A 177.07816141986694,177.07816141986694 0 0 0 494.6633099375316,520.533217541576 Z "/><path class="wedge" fill="url(#hiddenPattern)" d=" M 494.6633099375316,520.533217541576 L 442.1067508305639,621.3819392235173 A 290.8,290.8 0 0,1 438.71727760372914,619.587019212361 L 492.599342650084,519.4402287676032 A 177.07816141986694,177.07816141986694 0 0 0 494.6633099375316,520.533217541576 Z "/><path class="wedge" fill="rgb(213,135,130)" d=" M 496.328196925968,490.1792422677288 L 420.987691266503,609.2245649754568 A 290.8,290.8 0 0,1 376.3884905979613,574.4976867286412 L 473.3358154072479,472.2763735697227 A 149.91713854548885,149.91713854548885 0 0 0 496.328196925968,490.1792422677288 Z "/><path class="wedge" fill="rgb(213,135,130)" d=" M 457.67072703431876,494.7870105466952 L 381.3570625460356,579.1011919304672 A 290.8,290.8 0 0,1 376.3884905979613,574.4976867286412 L 454.645192008709,491.98377726875117 A 177.07816141986694,177.07816141986694 0 0 0 457.67072703431876,494.7870105466952 Z "/><path class="wedge" fill="rgb(216,144,140)" d=" M 481.803185320886,513.1301725637913 L 420.987691266503,609.2245649754568 A 290.8,290.8 0 0,1 381.3570625460356,579.1011919304672 L 457.67072703431876,494.7870105466952 A 177.07816141986694,177.07816141986694 0 0 0 481.803185320886,513.1301725637913 Z "/><path class="wedge" fill="rgb(216,144,140)" d=" M 450.5760079029502,518.0374275782859 L 392.8054671378879,588.9350429648648 A 290.8,290.8 0 0,1 381.3570625460356,579.1011919304672 L 442.72803993740183,511.29624829197274 A 199.3456001725943,199.3456001725943 0 0 0 450.5760079029502,518.0374275782859 Z "/><path class="wedge" fill="rgb(219,153,149)" d=" M 469.89513576786544,531.9460484256606 L 420.987691266503,609.2245649754568 A 290.8,290.8 0 0,1 392.8054671378879,588.9350429648648 L 450.5760079029502,518.0374275782859 A 199.3456001725943,199.3456001725943 0 0 0 469.89513576786544,531.9460484256606 Z "/><path class="wedge" fill="rgb(219,153,149)" d=" M 445.6732899729916,537.7922659626179 L 401.92819962203134,596.071121407613 A 290.8,290.8 0 0,1 392.8054671378879,588.9350429648648 L 438.8365782316168,532.4443823804008 A 217.929855758395,217.929855758395 0 0 0 445.6732899729916,537.7922659626179 Z "/><path class="wedge" fill="rgb(223,163,159)" d=" M 459.95675718381705,547.6496526870553 L 420.987691266503,609.2245649754568 A 290.8,290.8 0 0,1 401.92819962203134,596.071121407613 L 445.6732899729916,537.7922659626179 A 217.929855758395,217.929855758395 0 0 0 459.95675718381705,547.6496526870553 Z "/><path class="wedge" fill="rgb(210,127,121)" d=" M 473.3358154072479,472.2763735697227 L 376.3884905979613,574.4976867286412 A 290.8,290.8 0 0,1 375.2009213367701,573.3650064430342 L 472.72358368282426,471.6924389503792 A 149.91713854548885,149.91713854548885 0 0 0 473.3358154072479,472.2763735697227 Z "/><path class="wedge" fill="url(#hiddenPattern)" d=" M 473.3358154072479,472.2763735697227 L 376.3884905979613,574.4976867286412 A 290.8,290.8 0 0,1 375.2009213367701,573.3650064430342 L 472.72358368282426,471.6924389503792 A 149.91713854548885,149.91713854548885 0 0 0 473.3358154072479,472.2763735697227 Z "/><path class="wedge" fill="rgb(210,134,121)" d=" M 460.85265518167245,373.2739357741912 L 286.7330303090512,387.9896565130003 A 290.8,290.8 0 0,1 401.3324706247675,131.37723796969615 L 506.5898246192868,270.8587264644689 A 116.05963201754162,116.05963201754162 0 0 0 460.85265518167245,373.2739357741912 Z "/><path class="wedge" fill="rgb(210,134,121)" d=" M 483.01608782516564,246.29971589558687 L 395.1656847629656,136.16213224032418 A 290.8,290.8 0 0,1 401.3324706247675,131.37723796969615 L 486.1952724552348,243.83294265867056 A 149.91713854548885,149.91713854548885 0 0 0 483.01608782516564,246.29971589558687 Z "/><path class="wedge" fill="rgb(213,143,130)" d=" M 427.1154231737811,376.1252380618669 L 286.7330303090512,387.9896565130003 A 290.8,290.8 0 0,1 395.1656847629656,136.16213224032418 L 483.01608782516564,246.29971589558687 A 149.91713854548885,149.91713854548885 0 0 0 427.1154231737811,376.1252380618669 Z "/><path class="wedge" fill="rgb(213,143,130)" d=" M 408.8148260243329,306.5934302510623 L 301.12528297601165,270.0473102368993 A 290.8,290.8 0 0,1 395.1656847629656,136.16213224032418 L 466.07927391848483,225.06612226961403 A 177.07816141986694,177.07816141986694 0 0 0 408.8148260243329,306.5934302510623 Z "/><path class="wedge" fill="rgb(216,151,140)" d=" M 400.05088640619147,378.4125974866787 L 286.7330303090512,387.9896565130003 A 290.8,290.8 0 0,1 290.2791972298536,312.0967699301595 L 402.21026989458085,332.1987982399939 A 177.07816141986694,177.07816141986694 0 0 0 400.05088640619147,378.4125974866787 Z "/><path class="wedge" fill="rgb(216,151,140)" d=" M 380.29347009188996,328.2627196056543 L 290.2791912744584,312.0968030906935 A 290.8,290.8 0 0,1 290.2791972298536,312.0967699301595 L 380.2934741743584,328.2626968738573 A 199.3456001725943,199.3456001725943 0 0 0 380.29347009188996,328.2627196056543 Z "/><path class="wedge" fill="rgb(219,160,149)" d=" M 377.86254992009583,380.28784482670125 L 286.7330303090512,387.9896565130003 A 290.8,290.8 0 0,1 290.2791912744584,312.0968030906935 L 380.29347009188996,328.2627196056543 A 199.3456001725943,199.3456001725943 0 0 0 377.86254992009583,380.28784482670125 Z "/><path class="wedge" fill="rgb(219,160,149)" d=" M 361.39715938055474,328.51157350893914 L 289.4722963636427,316.81234268846356 A 290.8,290.8 0 0,1 290.2791912744584,312.0968030906935 L 362.00185845732994,324.97767782680353 A 217.929855758395,217.929855758395 0 0 0 361.39715938055474,328.51157350893914 Z "/><path class="wedge" fill="rgb(223,169,159)" d=" M 359.34431255744255,381.85291372575927 L 286.7330303090512,387.9896565130003 A 290.8,290.8 0 0,1 289.4722963636427,316.81234268846356 L 361.39715938055474,328.51157350893914 A 217.929855758395,217.929855758395 0 0 0 359.34431255744255,381.85291372575927 Z "/><path class="wedge" fill="rgb(216,153,140)" d=" M 402.21026989458085,332.1987982399939 L 290.2791972298536,312.0967699301595 A 290.8,290.8 0 0,1 296.80143814183793,283.91762447327983 L 406.181887601017,315.03954353611755 A 177.07816141986694,177.07816141986694 0 0 0 402.21026989458085,332.1987982399939 Z "/><path class="wedge" fill="rgb(216,153,140)" d=" M 383.5286679383398,313.4926674324624 L 294.99861088007333,290.55064823076464 A 290.8,290.8 0 0,1 296.80143814183793,283.91762447327983 L 384.7645196663452,308.94567946170974 A 199.3456001725943,199.3456001725943 0 0 0 383.5286679383398,313.4926674324624 Z "/><path class="wedge" fill="rgb(219,162,149)" d=" M 380.2934741743584,328.2626968738573 L 290.2791972298536,312.0967699301595 A 290.8,290.8 0 0,1 294.81449289510346,291.26486251790413 L 383.40245366661907,313.9822667299922 A 199.3456001725943,199.3456001725943 0 0 0 380.2934741743584,328.2626968738573 Z "/><path class="wedge" fill="rgb(219,162,149)" d=" M 365.39612854308393,309.38366709784646 L 294.8084180639788,291.28855584893836 A 290.8,290.8 0 0,1 294.81449289510346,291.26486251790413 L 365.40068111210303,309.36591096230745 A 217.929855758395,217.929855758395 0 0 0 365.39612854308393,309.38366709784646 Z "/><path class="wedge" fill="rgb(223,170,159)" d=" M 362.0018629203919,324.9776529758049 L 290.2791972298536,312.0967699301595 A 290.8,290.8 0 0,1 294.8084180639788,291.28855584893836 L 365.39612854308393,309.38366709784646 A 217.929855758395,217.929855758395 0 0 0 362.0018629203919,324.9776529758049 Z "/><path class="wedge" fill="rgb(219,162,149)" d=" M 383.40245366661907,313.9822667299922 L 294.81449289510346,291.26486251790413 A 290.8,290.8 0 0,1 294.99861088007333,290.55064823076464 L 383.5286679383398,313.4926674324624 A 199.3456001725943,199.3456001725943 0 0 0 383.40245366661907,313.9822667299922 Z "/><path class="wedge" fill="url(#hiddenPattern)" d=" M 383.40245366661907,313.9822667299922 L 294.81449289510346,291.26486251790413 A 290.8,290.8 0 0,1 294.99861088007333,290.55064823076464 L 383.5286679383398,313.4926674324624 A 199.3456001725943,199.3456001725943 0 0 0 383.40245366661907,313.9822667299922 Z "/><path class="wedge" fill="rgb(216,154,140)" d=" M 406.181887601017,315.03954353611755 L 296.80143814183793,283.91762447327983 A 290.8,290.8 0 0,1 301.12528297601165,270.0473102368993 L 408.8148260243329,306.5934302510623 A 177.07816141986694,177.07816141986694 0 0 0 406.181887601017,315.03954353611755 Z "/><path class="wedge" fill="url(#hiddenPattern)" d=" M 406.181887601017,315.03954353611755 L 296.80143814183793,283.91762447327983 A 290.8,290.8 0 0,1 301.12528297601165,270.0473102368993 L 408.8148260243329,306.5934302510623 A 177.07816141986694,177.07816141986694 0 0 0 406.181887601017,315.03954353611755 Z "/><path class="wedge" fill="rgb(210,143,121)" d=" M 506.5898246192868,270.8587264644689 L 401.3324706247675,131.37723796969615 A 290.8,290.8 0 0,1 401.90663100390896,130.94506992412562 L 506.8189746960482,270.68624618820115 A 116.05963201754162,116.05963201754162 0 0 0 506.5898246192868,270.8587264644689 Z "/><path class="wedge" fill="url(#hiddenPattern)" d=" M 506.5898246192868,270.8587264644689 L 401.3324706247675,131.37723796969615 A 290.8,290.8 0 0,1 401.90663100390896,130.94506992412562 L 506.8189746960482,270.68624618820115 A 116.05963201754162,116.05963201754162 0 0 0 506.5898246192868,270.8587264644689 Z "/><path class="wedge" fill="rgb(111,207,111)" d=" M 647.8140084322982,377.6280643160378 L 861.7560337291928,420.0122572641511 A 290.8,290.8 0 0,1 591.5406245366435,653.9107773715496 L 580.2601561341609,436.1026943428874 A 72.7,72.7 0 0 0 647.8140084322982,377.6280643160378 Z "/><path class="wedge" fill="rgb(111,207,111)" d=" M 682.0776204794395,411.6996290229148 L 841.0361828372902,484.2693999731546 A 290.8,290.8 0 0,1 591.5406245366435,653.9107773715496 L 582.502783181007,479.4042914569128 A 116.05963201754162,116.05963201754162 0 0 0 682.0776204794395,411.6996290229148 Z "/><path class="wedge" fill="rgb(121,210,121)" d=" M 690.347009303279,386.0543046167745 L 861.7560337291928,420.0122572641511 A 290.8,290.8 0 0,1 848.1248451556701,467.34884926737647 L 684.9067385680495,404.9465585674583 A 116.05963201754162,116.05963201754162 0 0 0 690.347009303279,386.0543046167745 Z "/><path class="wedge" fill="rgb(121,210,121)" d=" M 720.9541009808519,403.6018844879034 L 856.7031373650159,441.2871571070833 A 290.8,290.8 0 0,1 848.1248451556701,467.34884926737647 L 716.5317040701498,417.03755957155045 A 149.91713854548885,149.91713854548885 0 0 0 720.9541009808519,403.6018844879034 Z "/><path class="wedge" fill="rgb(130,213,130)" d=" M 723.5590382720634,392.6339611478269 L 861.7560337291928,420.0122572641511 A 290.8,290.8 0 0,1 857.4241068527148,438.6417739277194 L 721.3257848961697,402.23810086821084 A 149.91713854548885,149.91713854548885 0 0 0 723.5590382720634,392.6339611478269 Z "/><path class="wedge" fill="rgb(130,213,132)" d=" M 721.3257848961697,402.23810086821084 L 857.4241068527148,438.6417739277194 A 290.8,290.8 0 0,1 856.7031373650159,441.2871571070833 L 720.9541009808519,403.6018844879034 A 149.91713854548885,149.91713854548885 0 0 0 721.3257848961697,402.23810086821084 Z "/><path class="wedge" fill="url(#hiddenPattern)" d=" M 721.3257848961697,402.23810086821084 L 857.4241068527148,438.6417739277194 A 290.8,290.8 0 0,1 856.7031373650159,441.2871571070833 L 720.9541009808519,403.6018844879034 A 149.91713854548885,149.91713854548885 0 0 0 721.3257848961697,402.23810086821084 Z "/><path class="wedge" fill="rgb(121,210,128)" d=" M 684.9067385680495,404.9465585674583 L 848.1248451556701,467.34884926737647 A 290.8,290.8 0 0,1 841.0361828372902,484.2693999731546 L 682.0776204794395,411.6996290229148 A 116.05963201754162,116.05963201754162 0 0 0 684.9067385680495,404.9465585674583 Z "/><path class="wedge" fill="url(#hiddenPattern)" d=" M 684.9067385680495,404.9465585674583 L 848.1248451556701,467.34884926737647 A 290.8,290.8 0 0,1 841.0361828372902,484.2693999731546 L 682.0776204794395,411.6996290229148 A 116.05963201754162,116.05963201754162 0 0 0 684.9067385680495,404.9465585674583 Z "/><path class="wedge" fill="rgb(111,111,207)" d=" M 580.2601561341609,436.1026943428874 L 591.5406245366435,653.9107773715496 A 290.8,290.8 0 0,1 576.5000000000001,654.3 L 576.5,436.2 A 72.7,72.7 0 0 0 580.2601561341609,436.1026943428874 Z "/><rect fill="rgb(111,111,207)" x="1270.095" y="694.095" width="22" height="22"/><path class="line" d="M 584.0228299313951,654.2026780575359 L 585.4333605435316,708.7094301933239 A 345.32500000000005,345.32500000000005 0 0,0 627.1182931359801,705.095 L 921.825,705.095 L 1163.7186979166668,705.095"/><text x="1262.7616666666668" y="705.095" style="font-color:black;font-weight:normal" text-anchor="end">Unclassified&#160;&#160;&#160;0.8%</text><circle cx="576.5" cy="363.5" r="72.7"/><circle cx="576.5" cy="363.5" r="290.8"/><text x="576.5" y="363.5" text-anchor="middle" style="font-color:black;font-weight:bold" transform="rotate(360,576.5,363.5)">all</text><path class="line" d=" M 647.8140084322982,377.6280643160378 A 72.7,72.7 0 1 0 576.5,436.2"/><line x1="861.7560337291928" y1="420.0122572641511" x2="647.8140084322982" y2="377.6280643160378"/><text x="576.5" y="277.7921103947375" text-anchor="middle" style="font-color:black;font-weight:normal" transform="rotate(320.6029031563385,576.5,363.5)">k__Bacteria</text><path class="line" d=" M 460.85265518167245,373.2739357741912 A 116.05963201754162,116.05963201754162 0 0 0 576.5,479.5596320175416"/><line x1="286.7330303090512" y1="387.9896565130003" x2="460.85265518167245" y2="373.2739357741912"/><text x="576.5" y="489.7168839759258" text-anchor="middle" style="font-color:black;font-weight:normal" transform="rotate(42.58456355987777,576.5,363.5)">p__Proteobacteria</text><path class="line" d=" M 524.4822896490429,504.1033649651075 A 149.91713854548885,149.91713854548885 0 0 0 576.5,513.4171385454888"/><line x1="475.59926031926966" y1="636.2337176292683" x2="524.4822896490429" y2="504.1033649651075"/><text x="576.5" y="521.5654454078024" text-anchor="middle" style="font-color:black;font-weight:normal" transform="rotate(10.151244942814813,576.5,363.5)">c__Al...teria</text><path class="line" d=" M 539.6135025677638,536.693711083925 A 177.07816141986694,177.07816141986694 0 0 0 576.5,540.578161419867"/><line x1="515.9245266198544" y1="647.9209064481219" x2="539.6135025677638" y2="536.693711083925"/><text x="576.5" y="551.7118807962306" text-anchor="middle" style="font-color:black;font-weight:normal" transform="rotate(6.011557905389221,576.5,363.5)">o__R...ales</text><path class="line" d=" M 551.9208026462333,561.324496373974 A 199.3456001725943,199.3456001725943 0 0 0 576.5,562.8456001725942"/><line x1="540.6445279740966" y1="652.0810546896655" x2="551.9208026462333" y2="561.324496373974"/><text x="576.5" y="572.1377279654946" text-anchor="middle" style="font-color:black;font-weight:normal" transform="rotate(3.54128007876311,576.5,363.5)">f__Br...aceae</text><path class="line" d=" M 554.9887505162895,580.365599338679 A 217.929855758395,217.929855758395 0 0 0 576.5,581.429855758395"/><line x1="547.7959414023654" y1="652.8798835787028" x2="554.9887505162895" y2="580.365599338679"/><text x="576.5" y="589.3015727778304" text-anchor="middle" style="font-color:black;font-weight:normal" transform="rotate(2.832365564768184,576.5,363.5)">g__Bradyrhizobium</text><path class="line" d=" M 564.6448720394077,596.8723683423445 A 233.67328979726577,233.67328979726577 0 0 0 576.5,597.1732897972657"/><line x1="561.7466184135498" y1="653.9255115029748" x2="564.6448720394077" y2="596.8723683423445"/><text x="314.2633551013671" y="363.5" text-anchor="end" style="font-color:black;font-weight:normal" transform="rotate(-88.54596020676978,576.5,363.5)">s__Bradyrhizobium_erythrophlei&#160;&#160;&#160;0.8%</text><path class="line" d=" M 550.0590434029775,561.0842709387723 A 199.3456001725943,199.3456001725943 0 0 0 551.9208026462333,561.324496373974"/><line x1="537.9286436632816" y1="651.7306202858153" x2="550.0590434029775" y2="561.0842709387723"/><path class="line" d=" M 534.7869733246271,535.5950279857616 A 177.07816141986694,177.07816141986694 0 0 0 539.6135025677638,536.693711083925"/><line x1="507.9983391518457" y1="646.1166351456411" x2="534.7869733246271" y2="535.5950279857616"/><path class="line" d=" M 496.328196925968,490.1792422677288 A 149.91713854548885,149.91713854548885 0 0 0 524.4822896490429,504.1033649651075"/><line x1="420.987691266503" y1="609.2245649754568" x2="496.328196925968" y2="490.1792422677288"/><text x="576.5" y="532.4298545575535" text-anchor="middle" style="font-color:black;font-weight:normal" transform="rotate(26.3155413606209,576.5,363.5)">c__Gammap...obacteria</text><path class="line" d=" M 494.6633099375316,520.533217541576 A 177.07816141986694,177.07816141986694 0 0 0 515.0580554725985,529.5769782496424"/><line x1="442.1067508305639" y1="621.3819392235173" x2="494.6633099375316" y2="520.533217541576"/><text x="576.5" y="551.7118807962306" text-anchor="middle" style="font-color:black;font-weight:normal" transform="rotate(23.914213344911634,576.5,363.5)">o_...es</text><path class="line" d=" M 484.4261780584193,540.3080304206851 A 199.3456001725943,199.3456001725943 0 0 0 507.33177954087387,550.4610269192207"/><line x1="442.18518493796853" y1="621.4227994087616" x2="484.4261780584193" y2="540.3080304206851"/><text x="576.5" y="572.1377279654946" text-anchor="middle" style="font-color:black;font-weight:normal" transform="rotate(23.905500855566455,576.5,363.5)">f_...ae</text><path class="line" d=" M 476.37444462188733,557.067288535794 A 217.929855758395,217.929855758395 0 0 0 500.88348127738334,567.8907143858229"/><line x1="442.8950315452198" y1="621.7912162737966" x2="476.37444462188733" y2="557.067288535794"/><text x="322.1350721208025" y="363.5" text-anchor="end" style="font-color:black;font-weight:normal" transform="rotate(-66.17328660046243,576.5,363.5)">g__Pseudomonas&#160;&#160;&#160;2%</text><path class="line" d=" M 492.599342650084,519.4402287676032 A 177.07816141986694,177.07816141986694 0 0 0 494.6633099375316,520.533217541576"/><line x1="438.71727760372914" y1="619.587019212361" x2="492.599342650084" y2="519.4402287676032"/><path class="line" d=" M 473.3358154072479,472.2763735697227 A 149.91713854548885,149.91713854548885 0 0 0 496.328196925968,490.1792422677288"/><line x1="376.3884905979613" y1="574.4976867286412" x2="473.3358154072479" y2="472.2763735697227"/><text x="576.5" y="521.5654454078024" text-anchor="middle" style="font-color:black;font-weight:normal" transform="rotate(37.90587712447138,576.5,363.5)">c__Be...teria</text><path class="line" d=" M 457.67072703431876,494.7870105466952 A 177.07816141986694,177.07816141986694 0 0 0 481.803185320886,513.1301725637913"/><line x1="381.3570625460356" y1="579.1011919304672" x2="457.67072703431876" y2="494.7870105466952"/><text x="576.5" y="551.7118807962306" text-anchor="middle" style="font-color:black;font-weight:normal" transform="rotate(37.23858673576324,576.5,363.5)">o__...les</text><path class="line" d=" M 450.5760079029502,518.0374275782859 A 199.3456001725943,199.3456001725943 0 0 0 469.89513576786544,531.9460484256606"/><line x1="392.8054671378879" y1="588.9350429648648" x2="450.5760079029502" y2="518.0374275782859"/><text x="576.5" y="572.1377279654946" text-anchor="middle" style="font-color:black;font-weight:normal" transform="rotate(35.75163862563496,576.5,363.5)">f_...ae</text><path class="line" d=" M 445.6732899729916,537.7922659626179 A 217.929855758395,217.929855758395 0 0 0 459.95675718381705,547.6496526870553"/><line x1="401.92819962203134" y1="596.071121407613" x2="445.6732899729916" y2="537.7922659626179"/><text x="322.1350721208025" y="363.5" text-anchor="end" style="font-color:black;font-weight:normal" transform="rotate(-55.38944855031644,576.5,363.5)">g__Burkholderia&#160;&#160;&#160;1%</text><path class="line" d=" M 472.72358368282426,471.6924389503792 A 149.91713854548885,149.91713854548885 0 0 0 473.3358154072479,472.2763735697227"/><line x1="375.2009213367701" y1="573.3650064430342" x2="472.72358368282426" y2="471.6924389503792"/><path class="line" d=" M 506.5898246192868,270.8587264644689 A 116.05963201754162,116.05963201754162 0 0 0 460.85265518167245,373.2739357741912"/><line x1="401.3324706247675" y1="131.37723796969615" x2="506.5898246192868" y2="270.8587264644689"/><text x="576.5" y="223.7401134128953" text-anchor="middle" style="font-color:black;font-weight:normal" transform="rotate(294.0648564344942,576.5,363.5)">p__Actinobacteria</text><path class="line" d=" M 483.01608782516564,246.29971589558687 A 149.91713854548885,149.91713854548885 0 0 0 427.1154231737811,376.1252380618669"/><line x1="395.1656847629656" y1="136.16213224032418" x2="483.01608782516564" y2="246.29971589558687"/><text x="356.14143072725557" y="363.5" text-anchor="end" style="font-color:black;font-weight:normal" transform="rotate(23.295890465366966,576.5,363.5)">c__Actinobacteria&#160;&#160;&#160;16%</text><path class="line" d=" M 402.21026989458085,332.1987982399939 A 177.07816141986694,177.07816141986694 0 0 0 400.05088640619147,378.4125974866787"/><line x1="290.2791972298536" y1="312.0967699301595" x2="402.21026989458085" y2="332.1987982399939"/><text x="576.5" y="175.28811920376938" text-anchor="middle" style="font-color:black;font-weight:normal" transform="rotate(272.675253659287,576.5,363.5)">o_...es</text><path class="line" d=" M 380.29347009188996,328.2627196056543 A 199.3456001725943,199.3456001725943 0 0 0 377.86254992009583,380.28784482670125"/><line x1="290.2791912744584" y1="312.0968030906935" x2="380.29347009188996" y2="328.2627196056543"/><text x="576.5" y="154.86227203450537" text-anchor="middle" style="font-color:black;font-weight:normal" transform="rotate(272.67525034024345,576.5,363.5)">f_...ae</text><path class="line" d=" M 361.39715938055474,328.51157350893914 A 217.929855758395,217.929855758395 0 0 0 359.34431255744255,381.85291372575927"/><line x1="289.4722963636427" y1="316.81234268846356" x2="361.39715938055474" y2="328.51157350893914"/><text x="322.1350721208025" y="363.5" text-anchor="end" style="font-color:black;font-weight:normal" transform="rotate(2.203946154713778,576.5,363.5)">g__Streptomyces&#160;&#160;&#160;4%</text><path class="line" d=" M 406.181887601017,315.03954353611755 A 177.07816141986694,177.07816141986694 0 0 0 402.21026989458085,332.1987982399939"/><line x1="296.80143814183793" y1="283.91762447327983" x2="406.181887601017" y2="315.03954353611755"/><text x="576.5" y="175.28811920376938" text-anchor="middle" style="font-color:black;font-weight:normal" transform="rotate(283.0319872269928,576.5,363.5)">o_...es</text><path class="line" d=" M 383.40245366661907,313.9822667299922 A 199.3456001725943,199.3456001725943 0 0 0 380.2934741743584,328.2626968738573"/><line x1="294.81449289510346" y1="291.26486251790413" x2="383.40245366661907" y2="313.9822667299922"/><text x="576.5" y="154.86227203450537" text-anchor="middle" style="font-color:black;font-weight:normal" transform="rotate(282.28215886303286,576.5,363.5)">f_...ae</text><path class="line" d=" M 365.39612854308393,309.38366709784646 A 217.929855758395,217.929855758395 0 0 0 362.0018629203919,324.9776529758049"/><line x1="294.8084180639788" y1="291.28855584893836" x2="365.39612854308393" y2="309.38366709784646"/><text x="322.1350721208025" y="363.5" text-anchor="end" style="font-color:black;font-weight:normal" transform="rotate(12.279749237408254,576.5,363.5)">g__Mycobacterium&#160;&#160;&#160;1%</text><path class="line" d=" M 383.5286679383398,313.4926674324624 A 199.3456001725943,199.3456001725943 0 0 0 383.40245366661907,313.9822667299922"/><line x1="294.99861088007333" y1="290.55064823076464" x2="383.5286679383398" y2="313.4926674324624"/><line x1="859.05" y1="363.5" x2="875.55" y2="363.5" class="tick" transform="rotate(197.31401808557902,576.5,363.5)"/><text x="274.7" y="363.5" text-anchor="end" style="font-color:black;font-weight:normal" transform="rotate(17.31401808557901,576.5,363.5)">3 more</text><path class="line" d=" M 408.8148260243329,306.5934302510623 A 177.07816141986694,177.07816141986694 0 0 0 406.181887601017,315.03954353611755"/><line x1="301.12528297601165" y1="270.0473102368993" x2="408.8148260243329" y2="306.5934302510623"/><path class="line" d=" M 506.8189746960482,270.68624618820115 A 116.05963201754162,116.05963201754162 0 0 0 506.5898246192868,270.8587264644689"/><line x1="401.90663100390896" y1="130.94506992412562" x2="506.8189746960482" y2="270.68624618820115"/><path class="line" d=" M 580.2601561341609,436.1026943428874 A 72.7,72.7 0 0 0 647.8140084322982,377.6280643160378"/><line x1="591.5406245366435" y1="653.9107773715496" x2="580.2601561341609" y2="436.1026943428874"/><text x="758.25" y="363.5" text-anchor="start" style="font-color:black;font-weight:normal" transform="rotate(409.120528688236,576.5,363.5)">21%&#160;&#160;&#160;k__Eukaryota</text><path class="line" d=" M 684.9067385680495,404.9465585674583 A 116.05963201754162,116.05963201754162 0 0 0 690.347009303279,386.0543046167745"/><line x1="848.1248451556701" y1="467.34884926737647" x2="684.9067385680495" y2="404.9465585674583"/><text x="576.5" y="489.7168839759258" text-anchor="middle" style="font-color:black;font-weight:normal" transform="rotate(286.06444465182324,576.5,363.5)">p__Chordata</text><path class="line" d=" M 721.3257848961697,402.23810086821084 A 149.91713854548885,149.91713854548885 0 0 0 723.5590382720634,392.6339611478269"/><line x1="857.4241068527148" y1="438.6417739277194" x2="721.3257848961697" y2="402.23810086821084"/><text x="796.8585692727445" y="363.5" text-anchor="start" style="font-color:black;font-weight:normal" transform="rotate(373.09037916034504,576.5,363.5)">1%&#160;&#160;&#160;c__Mammalia</text><path class="line" d=" M 720.9541009808519,403.6018844879034 A 149.91713854548885,149.91713854548885 0 0 0 721.3257848961697,402.23810086821084"/><line x1="856.7031373650159" y1="441.2871571070833" x2="720.9541009808519" y2="403.6018844879034"/><line x1="859.05" y1="363.5" x2="875.55" y2="363.5" class="tick" transform="rotate(382.7306639851745,576.5,363.5)"/><text x="878.3" y="363.5" text-anchor="start" style="font-color:black;font-weight:normal" transform="rotate(382.7306639851745,576.5,363.5)">6 more</text><path class="line" d=" M 682.0776204794395,411.6996290229148 A 116.05963201754162,116.05963201754162 0 0 0 684.9067385680495,404.9465585674583"/><line x1="841.0361828372902" y1="484.2693999731546" x2="682.0776204794395" y2="411.6996290229148"/><path class="line" d=" M 576.5,436.2 A 72.7,72.7 0 0 0 580.2601561341609,436.1026943428874"/><line x1="576.5000000000001" y1="654.3" x2="576.5" y2="436.2"/></svg>